<svg width="83" height="36" viewBox="0 0 83 36" fill="none" xmlns="http://www.w3.org/2000/svg">
<rect x="0.4" y="0.4" width="82.2" height="35.2" rx="3.6" fill="white"/>
<rect x="0.4" y="0.4" width="82.2" height="35.2" rx="3.6" stroke="#DC7D26" stroke-width="0.8"/>
<path d="M22.312 20.8125H10.4897C10.6767 20.4441 10.8645 20.0651 11.0522 19.6798C12.1069 19.7958 13.343 19.0624 14.7549 17.4902C15.1064 18.4366 15.7709 19.665 16.905 19.6875C17.542 19.7002 18.1784 19.3219 18.833 18.5365C19.3104 19.1074 20.2941 19.6875 22.312 19.6875C22.4612 19.6875 22.6043 19.6282 22.7098 19.5227C22.8153 19.4173 22.8745 19.2742 22.8745 19.125C22.8745 18.9758 22.8153 18.8327 22.7098 18.7273C22.6043 18.6218 22.4612 18.5625 22.312 18.5625C20.1724 18.5625 19.5396 17.8277 19.4995 17.4298C19.5059 17.3091 19.4715 17.1897 19.4019 17.0909C19.3322 16.9921 19.2314 16.9195 19.1156 16.8848C18.9953 16.8487 18.8665 16.8531 18.7489 16.8975C18.6314 16.9418 18.5317 17.0236 18.4652 17.1302C17.6166 18.4338 17.1026 18.5667 16.924 18.5625C16.3432 18.5512 15.7526 17.19 15.5501 16.2127C15.5285 16.108 15.4775 16.0116 15.4031 15.9349C15.3287 15.8581 15.234 15.8042 15.1301 15.7793C15.0261 15.7544 14.9172 15.7597 14.8162 15.7945C14.7151 15.8293 14.626 15.8921 14.5594 15.9757C13.1391 17.7574 12.187 18.3572 11.5943 18.5126C12.1913 17.1858 12.637 16.0207 12.9225 15.0398C13.402 13.3917 13.4372 12.2393 13.0287 11.5172C12.8178 11.1389 12.372 10.6875 11.4776 10.6875C10.3484 10.6875 9.45752 11.7548 9.03283 13.616C8.78041 14.7206 8.73892 15.9511 8.91892 16.991C9.09892 18.0309 9.47228 18.7875 10.0151 19.2368C9.75283 19.7796 9.48564 20.3098 9.22548 20.8125H7.68705C7.53786 20.8125 7.39479 20.8718 7.2893 20.9773C7.18381 21.0827 7.12455 21.2258 7.12455 21.375C7.12455 21.5242 7.18381 21.6673 7.2893 21.7727C7.39479 21.8782 7.53786 21.9375 7.68705 21.9375H8.62994C7.834 23.4141 7.21525 24.4434 7.20541 24.4603C7.1653 24.5237 7.13827 24.5944 7.12589 24.6683C7.11351 24.7423 7.11603 24.8179 7.13331 24.8909C7.15059 24.9638 7.18228 25.0326 7.22652 25.0931C7.27075 25.1536 7.32664 25.2047 7.3909 25.2433C7.45515 25.2819 7.52648 25.3073 7.60069 25.318C7.6749 25.3287 7.75049 25.3244 7.82302 25.3054C7.89554 25.2864 7.96355 25.2531 8.02303 25.2075C8.08251 25.1619 8.13228 25.1048 8.16939 25.0397C8.17994 25.0214 8.96181 23.7185 9.90611 21.9375H22.312C22.4612 21.9375 22.6043 21.8782 22.7098 21.7727C22.8153 21.6673 22.8745 21.5242 22.8745 21.375C22.8745 21.2258 22.8153 21.0827 22.7098 20.9773C22.6043 20.8718 22.4612 20.8125 22.312 20.8125ZM10.1297 13.8663C10.4095 12.638 10.9517 11.8125 11.4776 11.8125C11.8524 11.8125 11.9768 11.9433 12.0492 12.0705C12.2602 12.4453 12.5077 13.7714 10.5263 18.1448C9.94548 17.3517 9.74791 15.5391 10.1297 13.8663Z" fill="#225BBF"/>
<path d="M37.36 15L36.79 13.43H33.64L33.07 15H32.08L34.69 8H35.74L38.35 15H37.36ZM33.96 12.56H36.47L35.21 9.11L33.96 12.56ZM43.1086 8H43.9786V15H43.1086V14.14C42.6753 14.8 42.0453 15.13 41.2186 15.13C40.5186 15.13 39.9219 14.8767 39.4286 14.37C38.9353 13.8567 38.6886 13.2333 38.6886 12.5C38.6886 11.7667 38.9353 11.1467 39.4286 10.64C39.9219 10.1267 40.5186 9.87 41.2186 9.87C42.0453 9.87 42.6753 10.2 43.1086 10.86V8ZM41.3286 14.29C41.8353 14.29 42.2586 14.12 42.5986 13.78C42.9386 13.4333 43.1086 13.0067 43.1086 12.5C43.1086 11.9933 42.9386 11.57 42.5986 11.23C42.2586 10.8833 41.8353 10.71 41.3286 10.71C40.8286 10.71 40.4086 10.8833 40.0686 11.23C39.7286 11.57 39.5586 11.9933 39.5586 12.5C39.5586 13.0067 39.7286 13.4333 40.0686 13.78C40.4086 14.12 40.8286 14.29 41.3286 14.29ZM49.4367 8H50.3067V15H49.4367V14.14C49.0034 14.8 48.3734 15.13 47.5467 15.13C46.8467 15.13 46.2501 14.8767 45.7567 14.37C45.2634 13.8567 45.0167 13.2333 45.0167 12.5C45.0167 11.7667 45.2634 11.1467 45.7567 10.64C46.2501 10.1267 46.8467 9.87 47.5467 9.87C48.3734 9.87 49.0034 10.2 49.4367 10.86V8ZM47.6567 14.29C48.1634 14.29 48.5867 14.12 48.9267 13.78C49.2667 13.4333 49.4367 13.0067 49.4367 12.5C49.4367 11.9933 49.2667 11.57 48.9267 11.23C48.5867 10.8833 48.1634 10.71 47.6567 10.71C47.1567 10.71 46.7367 10.8833 46.3967 11.23C46.0567 11.57 45.8867 11.9933 45.8867 12.5C45.8867 13.0067 46.0567 13.4333 46.3967 13.78C46.7367 14.12 47.1567 14.29 47.6567 14.29ZM35.01 27.13C34.3567 27.13 33.7967 26.9767 33.33 26.67C32.87 26.3633 32.5467 25.9433 32.36 25.41L33.16 24.95C33.4333 25.7967 34.0567 26.22 35.03 26.22C35.51 26.22 35.8767 26.1233 36.13 25.93C36.3833 25.73 36.51 25.4667 36.51 25.14C36.51 24.8067 36.3833 24.5567 36.13 24.39C35.8767 24.2233 35.4533 24.0467 34.86 23.86C34.5667 23.7667 34.3433 23.6933 34.19 23.64C34.0367 23.58 33.8433 23.4933 33.61 23.38C33.3833 23.26 33.2133 23.14 33.1 23.02C32.9867 22.8933 32.8833 22.73 32.79 22.53C32.7033 22.33 32.66 22.1033 32.66 21.85C32.66 21.2433 32.8733 20.7633 33.3 20.41C33.7267 20.05 34.2467 19.87 34.86 19.87C35.4133 19.87 35.8933 20.01 36.3 20.29C36.7133 20.57 37.0233 20.94 37.23 21.4L36.45 21.85C36.15 21.13 35.62 20.77 34.86 20.77C34.48 20.77 34.1733 20.8633 33.94 21.05C33.7067 21.2367 33.59 21.49 33.59 21.81C33.59 22.1167 33.7 22.35 33.92 22.51C34.14 22.67 34.52 22.8367 35.06 23.01C35.2533 23.07 35.39 23.1133 35.47 23.14C35.55 23.1667 35.6733 23.2133 35.84 23.28C36.0133 23.3467 36.14 23.4 36.22 23.44C36.3 23.48 36.4067 23.5367 36.54 23.61C36.68 23.6833 36.7833 23.7533 36.85 23.82C36.9167 23.8867 36.9933 23.97 37.08 24.07C37.1733 24.1633 37.24 24.26 37.28 24.36C37.32 24.46 37.3533 24.5767 37.38 24.71C37.4133 24.8367 37.43 24.9733 37.43 25.12C37.43 25.7333 37.2067 26.2233 36.76 26.59C36.3133 26.95 35.73 27.13 35.01 27.13ZM38.8813 21.09C38.7146 21.09 38.5746 21.0333 38.4613 20.92C38.3479 20.8067 38.2913 20.67 38.2913 20.51C38.2913 20.35 38.3479 20.2133 38.4613 20.1C38.5746 19.98 38.7146 19.92 38.8813 19.92C39.0413 19.92 39.1779 19.98 39.2913 20.1C39.4046 20.2133 39.4613 20.35 39.4613 20.51C39.4613 20.67 39.4046 20.8067 39.2913 20.92C39.1779 21.0333 39.0413 21.09 38.8813 21.09ZM38.4412 27V22H39.3113V27H38.4412ZM44.7885 22H45.6485V26.79C45.6485 27.53 45.3985 28.1033 44.8985 28.51C44.3985 28.9233 43.7985 29.13 43.0985 29.13C42.5385 29.13 42.0552 29.0233 41.6485 28.81C41.2418 28.6033 40.9352 28.3033 40.7285 27.91L41.4885 27.48C41.7618 28.04 42.3052 28.32 43.1185 28.32C43.6385 28.32 44.0452 28.1833 44.3385 27.91C44.6385 27.6367 44.7885 27.2633 44.7885 26.79V26.08C44.3485 26.7467 43.7218 27.08 42.9085 27.08C42.1952 27.08 41.5918 26.8267 41.0985 26.32C40.6052 25.8133 40.3585 25.1967 40.3585 24.47C40.3585 23.7433 40.6052 23.13 41.0985 22.63C41.5918 22.1233 42.1952 21.87 42.9085 21.87C43.7285 21.87 44.3552 22.2 44.7885 22.86V22ZM41.7385 25.74C42.0785 26.08 42.5018 26.25 43.0085 26.25C43.5152 26.25 43.9385 26.08 44.2785 25.74C44.6185 25.4 44.7885 24.9767 44.7885 24.47C44.7885 23.97 44.6185 23.55 44.2785 23.21C43.9385 22.87 43.5152 22.7 43.0085 22.7C42.5018 22.7 42.0785 22.87 41.7385 23.21C41.3985 23.55 41.2285 23.97 41.2285 24.47C41.2285 24.9767 41.3985 25.4 41.7385 25.74ZM49.4566 21.87C50.0433 21.87 50.5133 22.0567 50.8666 22.43C51.22 22.7967 51.3966 23.2967 51.3966 23.93V27H50.5266V23.98C50.5266 23.5733 50.4166 23.26 50.1966 23.04C49.9766 22.8133 49.6733 22.7 49.2866 22.7C48.8533 22.7 48.5033 22.8367 48.2366 23.11C47.97 23.3767 47.8366 23.79 47.8366 24.35V27H46.9666V22H47.8366V22.72C48.19 22.1533 48.73 21.87 49.4566 21.87ZM56.7512 22H57.6212V27H56.7512V26.14C56.3178 26.8 55.6878 27.13 54.8612 27.13C54.1612 27.13 53.5645 26.8767 53.0712 26.37C52.5778 25.8567 52.3312 25.2333 52.3312 24.5C52.3312 23.7667 52.5778 23.1467 53.0712 22.64C53.5645 22.1267 54.1612 21.87 54.8612 21.87C55.6878 21.87 56.3178 22.2 56.7512 22.86V22ZM54.9712 26.29C55.4778 26.29 55.9012 26.12 56.2412 25.78C56.5812 25.4333 56.7512 25.0067 56.7512 24.5C56.7512 23.9933 56.5812 23.57 56.2412 23.23C55.9012 22.8833 55.4778 22.71 54.9712 22.71C54.4712 22.71 54.0512 22.8833 53.7112 23.23C53.3712 23.57 53.2012 23.9933 53.2012 24.5C53.2012 25.0067 53.3712 25.4333 53.7112 25.78C54.0512 26.12 54.4712 26.29 54.9712 26.29ZM61.6593 22.84H60.3293V25.55C60.3293 25.7967 60.376 25.9733 60.4693 26.08C60.5693 26.18 60.7193 26.2333 60.9193 26.24C61.1193 26.24 61.366 26.2333 61.6593 26.22V27C60.8993 27.1 60.3426 27.04 59.9893 26.82C59.636 26.5933 59.4593 26.17 59.4593 25.55V22.84H58.4693V22H59.4593V20.86L60.3293 20.6V22H61.6593V22.84ZM66.1686 22H67.0386V27H66.1686V26.28C65.8153 26.8467 65.2753 27.13 64.5486 27.13C63.9619 27.13 63.4919 26.9467 63.1386 26.58C62.7853 26.2067 62.6086 25.7033 62.6086 25.07V22H63.4786V25.02C63.4786 25.4267 63.5886 25.7433 63.8086 25.97C64.0286 26.19 64.3319 26.3 64.7186 26.3C65.1519 26.3 65.5019 26.1667 65.7686 25.9C66.0353 25.6267 66.1686 25.21 66.1686 24.65V22ZM69.2331 22.84C69.5198 22.22 70.0398 21.91 70.7931 21.91V22.82C70.3665 22.8 69.9998 22.9133 69.6931 23.16C69.3865 23.4067 69.2331 23.8033 69.2331 24.35V27H68.3631V22H69.2331V22.84ZM71.9809 24.9C72.0676 25.3467 72.2709 25.6933 72.5909 25.94C72.9176 26.1867 73.3176 26.31 73.7909 26.31C74.4509 26.31 74.9309 26.0667 75.2309 25.58L75.9709 26C75.4843 26.7533 74.7509 27.13 73.7709 27.13C72.9776 27.13 72.3309 26.8833 71.8309 26.39C71.3376 25.89 71.0909 25.26 71.0909 24.5C71.0909 23.7467 71.3343 23.12 71.8209 22.62C72.3076 22.12 72.9376 21.87 73.7109 21.87C74.4443 21.87 75.0409 22.13 75.5009 22.65C75.9676 23.1633 76.2009 23.7833 76.2009 24.51C76.2009 24.6367 76.1909 24.7667 76.1709 24.9H71.9809ZM73.7109 22.69C73.2443 22.69 72.8576 22.8233 72.5509 23.09C72.2443 23.35 72.0543 23.7 71.9809 24.14H75.3209C75.2476 23.6667 75.0609 23.3067 74.7609 23.06C74.4609 22.8133 74.1109 22.69 73.7109 22.69Z" fill="black"/>
</svg>
