<svg width="12" height="12" viewBox="0 0 12 12" fill="none" xmlns="http://www.w3.org/2000/svg">
<path d="M5.25122 6.75098H1.50122C1.28872 6.75098 1.1106 6.6791 0.966846 6.53535C0.823096 6.3916 0.751221 6.21348 0.751221 6.00098C0.751221 5.78848 0.823096 5.61035 0.966846 5.4666C1.1106 5.32285 1.28872 5.25098 1.50122 5.25098H5.25122V1.50098C5.25122 1.28848 5.3231 1.11035 5.46685 0.966602C5.6106 0.822852 5.78872 0.750977 6.00122 0.750977C6.21372 0.750977 6.39185 0.822852 6.5356 0.966602C6.67935 1.11035 6.75122 1.28848 6.75122 1.50098V5.25098H10.5012C10.7137 5.25098 10.8918 5.32285 11.0356 5.4666C11.1793 5.61035 11.2512 5.78848 11.2512 6.00098C11.2512 6.21348 11.1793 6.3916 11.0356 6.53535C10.8918 6.6791 10.7137 6.75098 10.5012 6.75098H6.75122V10.501C6.75122 10.7135 6.67935 10.8916 6.5356 11.0354C6.39185 11.1791 6.21372 11.251 6.00122 11.251C5.78872 11.251 5.6106 11.1791 5.46685 11.0354C5.3231 10.8916 5.25122 10.7135 5.25122 10.501V6.75098Z" fill="#225BBF"/>
</svg>
