<svg width="49" height="48" viewBox="0 0 49 48" fill="none" xmlns="http://www.w3.org/2000/svg">
<rect x="0.5" width="48" height="48" rx="24" fill="#F4F7FC"/>
<path d="M24.5 14.25C22.5716 14.25 20.6866 14.8218 19.0832 15.8932C17.4798 16.9645 16.2301 18.4873 15.4922 20.2688C14.7542 22.0504 14.5611 24.0108 14.9373 25.9021C15.3136 27.7934 16.2422 29.5307 17.6057 30.8943C18.9693 32.2579 20.7066 33.1865 22.5979 33.5627C24.4892 33.9389 26.4496 33.7458 28.2312 33.0078C30.0127 32.2699 31.5355 31.0202 32.6068 29.4168C33.6782 27.8134 34.25 25.9284 34.25 24C34.2473 21.415 33.2192 18.9366 31.3913 17.1087C29.5634 15.2808 27.085 14.2527 24.5 14.25ZM24.5 32.25C22.8683 32.25 21.2733 31.7661 19.9165 30.8596C18.5598 29.9531 17.5024 28.6646 16.878 27.1571C16.2536 25.6496 16.0902 23.9908 16.4085 22.3905C16.7269 20.7902 17.5126 19.3202 18.6664 18.1664C19.8202 17.0126 21.2902 16.2268 22.8905 15.9085C24.4909 15.5902 26.1497 15.7536 27.6571 16.378C29.1646 17.0024 30.4531 18.0598 31.3596 19.4165C32.2661 20.7733 32.75 22.3683 32.75 24C32.7475 26.1873 31.8775 28.2843 30.3309 29.8309C28.7843 31.3775 26.6873 32.2475 24.5 32.25ZM26 28.5C26 28.6989 25.921 28.8897 25.7803 29.0303C25.6397 29.171 25.4489 29.25 25.25 29.25C24.8522 29.25 24.4706 29.092 24.1893 28.8107C23.908 28.5294 23.75 28.1478 23.75 27.75V24C23.5511 24 23.3603 23.921 23.2197 23.7803C23.079 23.6397 23 23.4489 23 23.25C23 23.0511 23.079 22.8603 23.2197 22.7197C23.3603 22.579 23.5511 22.5 23.75 22.5C24.1478 22.5 24.5294 22.658 24.8107 22.9393C25.092 23.2206 25.25 23.6022 25.25 24V27.75C25.4489 27.75 25.6397 27.829 25.7803 27.9697C25.921 28.1103 26 28.3011 26 28.5ZM23 19.875C23 19.6525 23.066 19.435 23.1896 19.25C23.3132 19.065 23.4889 18.9208 23.6945 18.8356C23.9001 18.7505 24.1263 18.7282 24.3445 18.7716C24.5627 18.815 24.7632 18.9222 24.9205 19.0795C25.0778 19.2368 25.185 19.4373 25.2284 19.6555C25.2718 19.8738 25.2495 20.1 25.1644 20.3055C25.0792 20.5111 24.935 20.6868 24.75 20.8104C24.565 20.934 24.3475 21 24.125 21C23.8266 21 23.5405 20.8815 23.3295 20.6705C23.1185 20.4595 23 20.1734 23 19.875Z" fill="#071226"/>
</svg>
