<svg width="17" height="16" viewBox="0 0 17 16" fill="none" xmlns="http://www.w3.org/2000/svg">
<path d="M9.77175 4.44737L14.0699 0.170282C14.1853 0.054865 14.3268 -0.00367651 14.4945 -0.00534318C14.6622 -0.00687096 14.8081 0.0543095 14.932 0.178198C15.0474 0.293615 15.1051 0.438615 15.1051 0.613199C15.1051 0.787921 15.0474 0.93299 14.932 1.04841L10.299 5.68132C10.1483 5.83202 9.97258 5.90736 9.77175 5.90736C9.57092 5.90736 9.39515 5.83202 9.24446 5.68132L6.96571 3.40257C6.84182 3.27869 6.78064 3.1323 6.78217 2.96341C6.78383 2.79466 6.84925 2.64834 6.97842 2.52445C7.10245 2.40903 7.24883 2.35049 7.41758 2.34882C7.58633 2.3473 7.73272 2.40848 7.85675 2.53237L9.77175 4.44737ZM10.5617 14.1686C10.5886 14.1793 10.6126 14.1847 10.6338 14.1847C10.6552 14.1847 10.6793 14.1793 10.7061 14.1686L15.6082 12.6509C15.5656 12.4619 15.4769 12.3169 15.3422 12.2159C15.2076 12.1149 15.057 12.0644 14.8903 12.0644H10.8103C10.446 12.0644 10.1367 12.0506 9.88238 12.0228C9.62807 11.995 9.36682 11.9341 9.09863 11.8401L7.79092 11.4122C7.62217 11.3587 7.50119 11.2519 7.428 11.0917C7.35481 10.9315 7.34494 10.7669 7.39842 10.598C7.45175 10.4345 7.55508 10.3141 7.70842 10.2367C7.86175 10.1592 8.02279 10.1472 8.19154 10.2007L9.27488 10.5805C9.5271 10.6606 9.80918 10.7175 10.1211 10.7511C10.4331 10.7847 10.838 10.8058 11.3359 10.8144H11.557C11.557 10.6082 11.5105 10.4303 11.4176 10.2807C11.3247 10.1311 11.2023 10.0301 11.0505 9.97778L6.21571 8.20216C6.1996 8.19688 6.18488 8.19292 6.17154 8.19028C6.15821 8.1875 6.14356 8.18612 6.12758 8.18612H4.58592V12.4811L10.5617 14.1686ZM10.2365 15.393L4.58592 13.7728C4.49078 14.1178 4.29738 14.3947 4.00571 14.6036C3.71404 14.8125 3.40529 14.9169 3.07946 14.9169H1.92571C1.51001 14.9169 1.15501 14.7698 0.860709 14.4755C0.566403 14.181 0.41925 13.826 0.41925 13.4105V8.44257C0.41925 8.02702 0.566403 7.67209 0.860709 7.37778C1.15501 7.08348 1.51001 6.93632 1.92571 6.93632H6.11946C6.20599 6.93632 6.2939 6.94535 6.38321 6.96341C6.47238 6.9816 6.55592 7.00459 6.63383 7.03237L11.4897 8.82091C11.8679 8.96077 12.182 9.20834 12.432 9.56362C12.682 9.91889 12.807 10.3358 12.807 10.8144H14.8903C15.4886 10.8144 15.9761 11.0076 16.3526 11.3938C16.7292 11.7799 16.9176 12.2813 16.9176 12.8978C16.9176 13.1339 16.8551 13.324 16.7301 13.4682C16.6051 13.6125 16.416 13.7268 16.1628 13.8111L11.1068 15.3801C10.9699 15.4249 10.8262 15.4487 10.6755 15.4513C10.5249 15.4541 10.3786 15.4347 10.2365 15.393ZM1.66925 13.4105C1.66925 13.4854 1.69328 13.5468 1.74133 13.5949C1.78939 13.6429 1.85085 13.6669 1.92571 13.6669H3.07946C3.15418 13.6669 3.21564 13.6469 3.26383 13.6069C3.31189 13.5668 3.33592 13.5013 3.33592 13.4105V8.18612H1.92571C1.85085 8.18612 1.78939 8.21021 1.74133 8.25841C1.69328 8.30646 1.66925 8.36785 1.66925 8.44257V13.4105Z" fill="black"/>
</svg>
