<svg width="20" height="20" viewBox="0 0 20 20" fill="none" xmlns="http://www.w3.org/2000/svg">
<mask id="mask0_348_16056" style="mask-type:alpha" maskUnits="userSpaceOnUse" x="0" y="0" width="20" height="20">
<rect width="20" height="20" fill="#D9D9D9"/>
</mask>
<g mask="url(#mask0_348_16056)">
<path d="M14.7278 13.0368C14.7278 14.3901 14.2569 15.5417 13.315 16.4916C12.3734 17.4416 11.2271 17.9166 9.87609 17.9166C8.52512 17.9166 7.37741 17.4416 6.43296 16.4916C5.48852 15.5417 5.0163 14.3901 5.0163 13.0368V5.54471C5.0163 4.58318 5.35019 3.76589 6.01796 3.09284C6.6856 2.41978 7.50019 2.08325 8.46171 2.08325C9.42324 2.08325 10.2379 2.41978 10.9057 3.09284C11.5734 3.76589 11.9073 4.58318 11.9073 5.54471V12.6362C11.9073 13.2002 11.7109 13.6817 11.318 14.0808C10.9249 14.4798 10.446 14.6793 9.8813 14.6793C9.31644 14.6793 8.83449 14.4812 8.43546 14.0849C8.03644 13.6887 7.83692 13.2058 7.83692 12.6362V5.94554C7.83692 5.76846 7.89678 5.61999 8.0165 5.50013C8.13637 5.3804 8.28491 5.32054 8.46213 5.32054C8.63921 5.32054 8.78762 5.3804 8.90734 5.50013C9.02692 5.61999 9.08671 5.76846 9.08671 5.94554V12.6362C9.08671 12.8595 9.16178 13.0476 9.31192 13.2003C9.46206 13.3531 9.6488 13.4295 9.87213 13.4295C10.0953 13.4295 10.282 13.3531 10.4321 13.2003C10.5823 13.0476 10.6573 12.8595 10.6573 12.6362V5.53679C10.6487 4.92138 10.435 4.40027 10.0161 3.97346C9.5972 3.54665 9.07907 3.33325 8.46171 3.33325C7.84699 3.33325 7.32741 3.54797 6.90296 3.97742C6.47852 4.407 6.2663 4.92943 6.2663 5.54471V13.0368C6.25769 14.0443 6.60595 14.9011 7.31109 15.6072C8.01623 16.3135 8.8722 16.6666 9.879 16.6666C10.8715 16.6666 11.7152 16.3135 12.41 15.6072C13.1048 14.9011 13.4607 14.0443 13.4778 13.0368V5.94554C13.4778 5.76846 13.5377 5.61999 13.6575 5.50013C13.7774 5.3804 13.926 5.32054 14.1032 5.32054C14.2803 5.32054 14.4287 5.3804 14.5484 5.50013C14.668 5.61999 14.7278 5.76846 14.7278 5.94554V13.0368Z" fill="black"/>
</g>
</svg>
