<svg width="16" height="16" viewBox="0 0 16 16" fill="none" xmlns="http://www.w3.org/2000/svg">
<path d="M8.00144 15.9168C6.90644 15.9168 5.8772 15.7091 4.91373 15.2935C3.95026 14.8779 3.1122 14.314 2.39956 13.6016C1.68692 12.8893 1.12269 12.0516 0.706855 11.0885C0.29116 10.1254 0.083313 9.09648 0.083313 8.00162C0.083313 6.90662 0.291091 5.87738 0.706646 4.91391C1.1222 3.95044 1.68616 3.11238 2.39852 2.39975C3.11088 1.68711 3.94859 1.12287 4.91165 0.707038C5.8747 0.291343 6.90366 0.0834961 7.99852 0.0834961C9.09352 0.0834961 10.1228 0.291274 11.0862 0.706829C12.0497 1.12238 12.8878 1.68634 13.6004 2.3987C14.313 3.11107 14.8773 3.94877 15.2931 4.91183C15.7088 5.87489 15.9166 6.90384 15.9166 7.9987C15.9166 9.0937 15.7089 10.1229 15.2933 11.0864C14.8778 12.0499 14.3138 12.8879 13.6014 13.6006C12.8891 14.3132 12.0514 14.8775 11.0883 15.2933C10.1253 15.709 9.0963 15.9168 8.00144 15.9168ZM7.99998 14.6668C8.78179 14.6668 9.5347 14.5346 10.2587 14.2702C10.9826 14.0057 11.6442 13.623 12.2435 13.122L2.8781 3.75662C2.38241 4.35593 2.00102 5.01752 1.73394 5.74141C1.46685 6.46544 1.33331 7.21836 1.33331 8.00016C1.33331 9.86127 1.97915 11.4377 3.27081 12.7293C4.56248 14.021 6.13887 14.6668 7.99998 14.6668ZM13.1219 12.2437C13.6228 11.6444 14.0055 10.9828 14.27 10.2589C14.5344 9.53489 14.6666 8.78197 14.6666 8.00016C14.6666 6.13905 14.0208 4.56266 12.7291 3.271C11.4375 1.97933 9.86109 1.3335 7.99998 1.3335C7.21623 1.3335 6.46151 1.4644 5.73581 1.7262C5.01026 1.98787 4.35047 2.3719 3.75644 2.87829L13.1219 12.2437Z" fill="#D91212"/>
</svg>
