<svg width="20" height="20" viewBox="0 0 20 20" fill="none" xmlns="http://www.w3.org/2000/svg">
<mask id="mask0_348_16046" style="mask-type:alpha" maskUnits="userSpaceOnUse" x="0" y="0" width="20" height="20">
<rect width="20" height="20" fill="#D9D9D9"/>
</mask>
<g mask="url(#mask0_348_16046)">
<path d="M5.03206 14.5833L3.36373 16.2514C3.12665 16.4886 2.85394 16.5423 2.5456 16.4126C2.23741 16.2828 2.08331 16.049 2.08331 15.7114V3.58971C2.08331 3.16874 2.22915 2.81242 2.52081 2.52075C2.81248 2.22909 3.1688 2.08325 3.58977 2.08325H16.4102C16.8312 2.08325 17.1875 2.22909 17.4791 2.52075C17.7708 2.81242 17.9166 3.16874 17.9166 3.58971V13.0768C17.9166 13.4978 17.7708 13.8541 17.4791 14.1458C17.1875 14.4374 16.8312 14.5833 16.4102 14.5833H5.03206ZM4.49998 13.3333H16.4102C16.4744 13.3333 16.5331 13.3065 16.5864 13.253C16.6399 13.1997 16.6666 13.141 16.6666 13.0768V3.58971C16.6666 3.52554 16.6399 3.46679 16.5864 3.41346C16.5331 3.35999 16.4744 3.33325 16.4102 3.33325H3.58977C3.5256 3.33325 3.46685 3.35999 3.41352 3.41346C3.36005 3.46679 3.33331 3.52554 3.33331 3.58971V14.4872L4.49998 13.3333Z" fill="black"/>
</g>
</svg>
