<svg width="20" height="20" viewBox="0 0 20 20" fill="none" xmlns="http://www.w3.org/2000/svg">
<mask id="mask0_348_15953" style="mask-type:alpha" maskUnits="userSpaceOnUse" x="0" y="0" width="20" height="20">
<rect width="20" height="20" fill="#D9D9D9"/>
</mask>
<g mask="url(#mask0_348_15953)">
<path d="M9.99736 11.1673L5.91402 15.2507C5.76124 15.4034 5.5668 15.4798 5.33069 15.4798C5.09458 15.4798 4.90013 15.4034 4.74736 15.2507C4.59458 15.0979 4.51819 14.9034 4.51819 14.6673C4.51819 14.4312 4.59458 14.2368 4.74736 14.084L8.83069 10.0007L4.74736 5.91732C4.59458 5.76454 4.51819 5.5701 4.51819 5.33398C4.51819 5.09787 4.59458 4.90343 4.74736 4.75065C4.90013 4.59787 5.09458 4.52148 5.33069 4.52148C5.5668 4.52148 5.76124 4.59787 5.91402 4.75065L9.99736 8.83398L14.0807 4.75065C14.2335 4.59787 14.4279 4.52148 14.664 4.52148C14.9001 4.52148 15.0946 4.59787 15.2474 4.75065C15.4001 4.90343 15.4765 5.09787 15.4765 5.33398C15.4765 5.5701 15.4001 5.76454 15.2474 5.91732L11.164 10.0007L15.2474 14.084C15.4001 14.2368 15.4765 14.4312 15.4765 14.6673C15.4765 14.9034 15.4001 15.0979 15.2474 15.2507C15.0946 15.4034 14.9001 15.4798 14.664 15.4798C14.4279 15.4798 14.2335 15.4034 14.0807 15.2507L9.99736 11.1673Z" fill="#1C1B1F"/>
</g>
</svg>
