<svg width="14" height="16" viewBox="0 0 14 16" fill="none" xmlns="http://www.w3.org/2000/svg">
<path d="M13.023 3.66453L10.2105 0.852031C10.1582 0.799812 10.0961 0.758404 10.0279 0.730173C9.95957 0.701943 9.88639 0.687442 9.8125 0.6875H4.1875C3.88913 0.6875 3.60298 0.806027 3.392 1.017C3.18103 1.22798 3.0625 1.51413 3.0625 1.8125V2.9375H1.9375C1.63913 2.9375 1.35298 3.05603 1.142 3.267C0.931026 3.47798 0.8125 3.76413 0.8125 4.0625V14.1875C0.8125 14.4859 0.931026 14.772 1.142 14.983C1.35298 15.194 1.63913 15.3125 1.9375 15.3125H9.8125C10.1109 15.3125 10.397 15.194 10.608 14.983C10.819 14.772 10.9375 14.4859 10.9375 14.1875V13.0625H12.0625C12.3609 13.0625 12.647 12.944 12.858 12.733C13.069 12.522 13.1875 12.2359 13.1875 11.9375V4.0625C13.1876 3.98861 13.1731 3.91543 13.1448 3.84715C13.1166 3.77886 13.0752 3.71681 13.023 3.66453ZM9.8125 14.1875H1.9375V4.0625H7.32977L9.8125 6.54523V12.4887C9.8125 12.493 9.8125 12.4965 9.8125 12.5C9.8125 12.5035 9.8125 12.507 9.8125 12.5113V14.1875ZM12.0625 11.9375H10.9375V6.3125C10.9376 6.23861 10.9231 6.16543 10.8948 6.09715C10.8666 6.02886 10.8252 5.96681 10.773 5.91453L7.96047 3.10203C7.90819 3.04981 7.84614 3.0084 7.77785 2.98017C7.70957 2.95194 7.63639 2.93744 7.5625 2.9375H4.1875V1.8125H9.57977L12.0625 4.29523V11.9375ZM8.125 9.6875C8.125 9.83668 8.06574 9.97976 7.96025 10.0852C7.85476 10.1907 7.71168 10.25 7.5625 10.25H4.1875C4.03832 10.25 3.89524 10.1907 3.78975 10.0852C3.68426 9.97976 3.625 9.83668 3.625 9.6875C3.625 9.53832 3.68426 9.39524 3.78975 9.28975C3.89524 9.18426 4.03832 9.125 4.1875 9.125H7.5625C7.71168 9.125 7.85476 9.18426 7.96025 9.28975C8.06574 9.39524 8.125 9.53832 8.125 9.6875ZM8.125 11.9375C8.125 12.0867 8.06574 12.2298 7.96025 12.3352C7.85476 12.4407 7.71168 12.5 7.5625 12.5H4.1875C4.03832 12.5 3.89524 12.4407 3.78975 12.3352C3.68426 12.2298 3.625 12.0867 3.625 11.9375C3.625 11.7883 3.68426 11.6452 3.78975 11.5398C3.89524 11.4343 4.03832 11.375 4.1875 11.375H7.5625C7.71168 11.375 7.85476 11.4343 7.96025 11.5398C8.06574 11.6452 8.125 11.7883 8.125 11.9375Z" fill="white"/>
</svg>
