<svg width="14" height="18" viewBox="0 0 14 18" fill="none" xmlns="http://www.w3.org/2000/svg">
<g clip-path="url(#clip0_348_4239)">
<path d="M5.69678 14.3271C5.47607 14.1089 5.47607 13.7523 5.69678 13.5319H5.69442L7.19675 12.0306C7.4151 11.8101 7.77199 11.8101 7.9927 12.0306L9.49502 13.5319C9.71572 13.75 9.71337 14.1065 9.49502 14.3271C9.27667 14.5475 8.91977 14.5475 8.69907 14.3271L7.5959 13.2246L6.49273 14.3271C6.27436 14.5475 5.91748 14.5452 5.69678 14.3271Z" fill="black"/>
<path d="M9.49414 6.77669C9.71484 6.99485 9.71484 7.3514 9.49414 7.57189H9.49649L7.99417 9.07313C7.77582 9.29364 7.41892 9.29364 7.19822 9.07313L5.6959 7.57189C5.47519 7.35373 5.47755 6.9972 5.6959 6.77669C5.91425 6.55621 6.27114 6.55621 6.49185 6.77669L7.59502 7.87917L8.69819 6.77669C8.91656 6.55621 9.27344 6.55856 9.49414 6.77669Z" fill="black"/>
<path d="M1.93359 10.5518H12.7238" stroke="black" stroke-width="1.55379"/>
<path d="M2.63194 16.2687C2.33091 16.2687 2.08461 16.026 2.08461 15.7292V1.99703C2.08461 1.7003 2.33091 1.45752 2.63194 1.45752H8.89187V4.15508C8.89187 4.75191 9.38105 5.2341 9.98654 5.2341H12.7232V15.7292C12.7232 16.026 12.4769 16.2687 12.1758 16.2687H2.63194ZM3.02525 0.230957C1.81771 0.230957 0.835938 1.19871 0.835938 2.389V15.3373C0.835938 16.5275 1.81771 17.4953 3.02525 17.4953H11.7825C12.9901 17.4953 13.9719 16.5275 13.9719 15.3373V5.4406C13.9719 4.86738 13.7427 4.31775 13.3322 3.91312L10.2329 0.861511C9.82242 0.456878 9.26823 0.230957 8.6867 0.230957H3.02525Z" fill="black"/>
</g>
<defs>
<clipPath id="clip0_348_4239">
<rect width="13.1641" height="17.2643" fill="white" transform="translate(0.835938 0.230957)"/>
</clipPath>
</defs>
</svg>
