<svg width="28" height="28" viewBox="0 0 28 28" fill="none" xmlns="http://www.w3.org/2000/svg">
<rect width="28" height="28" rx="4" fill="white"/>
<mask id="mask0_348_16897" style="mask-type:alpha" maskUnits="userSpaceOnUse" x="4" y="4" width="20" height="20">
<rect x="4" y="4" width="20" height="20" fill="#D9D9D9"/>
</mask>
<g mask="url(#mask0_348_16897)">
<path d="M9.25646 21.9168C8.83549 21.9168 8.47917 21.771 8.1875 21.4793C7.89583 21.1877 7.75 20.8313 7.75 20.4104V7.58995C7.75 7.16898 7.89583 6.81266 8.1875 6.521C8.47917 6.22933 8.83549 6.0835 9.25646 6.0835H15.2517C15.4525 6.0835 15.6456 6.12252 15.831 6.20058C16.0163 6.2785 16.1774 6.38586 16.3142 6.52266L19.8108 10.0193C19.9476 10.1561 20.055 10.3172 20.1329 10.5025C20.211 10.6879 20.25 10.881 20.25 11.0818V20.4104C20.25 20.8313 20.1042 21.1877 19.8125 21.4793C19.5208 21.771 19.1645 21.9168 18.7435 21.9168H9.25646ZM15.25 10.3302V7.3335H9.25646C9.19229 7.3335 9.13354 7.36023 9.08021 7.4137C9.02674 7.46704 9 7.52579 9 7.58995V20.4104C9 20.4745 9.02674 20.5333 9.08021 20.5866C9.13354 20.6401 9.19229 20.6668 9.25646 20.6668H18.7435C18.8077 20.6668 18.8665 20.6401 18.9198 20.5866C18.9733 20.5333 19 20.4745 19 20.4104V11.0835H16.0033C15.7885 11.0835 15.6092 11.0116 15.4656 10.8679C15.3219 10.7243 15.25 10.545 15.25 10.3302Z" fill="#225BBF"/>
</g>
</svg>
