<svg width="16" height="16" viewBox="0 0 16 16" fill="none" xmlns="http://www.w3.org/2000/svg">
<path d="M15.148 14.3519L11.6274 10.8321C12.6478 9.60705 13.1566 8.03577 13.048 6.44512C12.9394 4.85447 12.2218 3.36692 11.0444 2.29193C9.86692 1.21693 8.32037 0.637251 6.72643 0.673476C5.13249 0.709701 3.61388 1.35904 2.4865 2.48642C1.35913 3.6138 0.709785 5.13241 0.67356 6.72635C0.637335 8.32029 1.21701 9.86684 2.29201 11.0443C3.36701 12.2217 4.85456 12.9394 6.4452 13.048C8.03585 13.1566 9.60714 12.6477 10.8322 11.6273L14.352 15.1479C14.4043 15.2001 14.4663 15.2416 14.5346 15.2699C14.6029 15.2982 14.6761 15.3127 14.75 15.3127C14.8239 15.3127 14.8971 15.2982 14.9654 15.2699C15.0337 15.2416 15.0957 15.2001 15.148 15.1479C15.2002 15.0956 15.2417 15.0336 15.27 14.9653C15.2983 14.897 15.3128 14.8238 15.3128 14.7499C15.3128 14.676 15.2983 14.6028 15.27 14.5345C15.2417 14.4663 15.2002 14.4042 15.148 14.3519ZM1.8125 6.87492C1.8125 5.87365 2.10941 4.89487 2.66569 4.06234C3.22196 3.22982 4.01261 2.58094 4.93767 2.19778C5.86272 1.81461 6.88062 1.71435 7.86264 1.90969C8.84467 2.10503 9.74673 2.58718 10.4547 3.29519C11.1627 4.00319 11.6449 4.90524 11.8402 5.88727C12.0356 6.8693 11.9353 7.8872 11.5521 8.81225C11.169 9.7373 10.5201 10.528 9.68757 11.0842C8.85505 11.6405 7.87627 11.9374 6.875 11.9374C5.5328 11.9359 4.246 11.4021 3.29692 10.453C2.34784 9.50392 1.81399 8.21712 1.8125 6.87492Z" fill="black"/>
</svg>
