<svg width="20" height="20" viewBox="0 0 20 20" fill="none" xmlns="http://www.w3.org/2000/svg">
<mask id="mask0_348_16041" style="mask-type:alpha" maskUnits="userSpaceOnUse" x="0" y="0" width="20" height="20">
<rect width="20" height="20" fill="#D9D9D9"/>
</mask>
<g mask="url(#mask0_348_16041)">
<path d="M15.001 18.125C14.3646 18.125 13.8235 17.9022 13.3775 17.4567C12.9314 17.011 12.7083 16.4699 12.7083 15.8333C12.7083 15.7293 12.7166 15.6216 12.7331 15.5102C12.7498 15.3987 12.7746 15.2959 12.8077 15.2019L6.64415 11.5929C6.42415 11.8119 6.17366 11.9831 5.89269 12.1065C5.61172 12.2299 5.31415 12.2917 4.99998 12.2917C4.36345 12.2917 3.82234 12.069 3.37665 11.6235C2.93109 11.1781 2.70831 10.6373 2.70831 10.001C2.70831 9.36465 2.93109 8.82347 3.37665 8.3775C3.82234 7.93139 4.36345 7.70833 4.99998 7.70833C5.31415 7.70833 5.61172 7.77007 5.89269 7.89354C6.17366 8.01688 6.42415 8.18806 6.64415 8.40708L12.8077 4.79813C12.7746 4.7041 12.7498 4.60132 12.7331 4.48979C12.7166 4.3784 12.7083 4.27069 12.7083 4.16667C12.7083 3.53014 12.931 2.98903 13.3764 2.54333C13.8219 2.09778 14.3627 1.875 14.9989 1.875C15.6353 1.875 16.1765 2.09771 16.6225 2.54313C17.0686 2.98854 17.2916 3.52938 17.2916 4.16563C17.2916 4.80201 17.0689 5.34319 16.6233 5.78917C16.1776 6.23528 15.6365 6.45833 15 6.45833C14.6858 6.45833 14.3882 6.3966 14.1073 6.27312C13.8263 6.14979 13.5758 5.97861 13.3558 5.75958L7.19227 9.36854C7.22533 9.46257 7.25019 9.56514 7.26685 9.67625C7.28338 9.78736 7.29165 9.89472 7.29165 9.99833C7.29165 10.1019 7.28338 10.2099 7.26685 10.3221C7.25019 10.4343 7.22533 10.5374 7.19227 10.6315L13.3558 14.2404C13.5758 14.0214 13.8263 13.8502 14.1073 13.7269C14.3882 13.6034 14.6858 13.5417 15 13.5417C15.6365 13.5417 16.1776 13.7644 16.6233 14.2098C17.0689 14.6552 17.2916 15.196 17.2916 15.8323C17.2916 16.4687 17.0689 17.0099 16.6235 17.4558C16.1781 17.9019 15.6373 18.125 15.001 18.125ZM15 5.20833C15.2896 5.20833 15.5355 5.10708 15.7379 4.90458C15.9404 4.70222 16.0416 4.45625 16.0416 4.16667C16.0416 3.87708 15.9404 3.63111 15.7379 3.42875C15.5355 3.22625 15.2896 3.125 15 3.125C14.7104 3.125 14.4644 3.22625 14.2621 3.42875C14.0596 3.63111 13.9583 3.87708 13.9583 4.16667C13.9583 4.45625 14.0596 4.70222 14.2621 4.90458C14.4644 5.10708 14.7104 5.20833 15 5.20833ZM4.99998 11.0417C5.28956 11.0417 5.53554 10.9404 5.7379 10.7379C5.9404 10.5356 6.04165 10.2896 6.04165 10C6.04165 9.71042 5.9404 9.46445 5.7379 9.26208C5.53554 9.05958 5.28956 8.95833 4.99998 8.95833C4.7104 8.95833 4.46442 9.05958 4.26206 9.26208C4.05956 9.46445 3.95831 9.71042 3.95831 10C3.95831 10.2896 4.05956 10.5356 4.26206 10.7379C4.46442 10.9404 4.7104 11.0417 4.99998 11.0417ZM15 16.875C15.2896 16.875 15.5355 16.7737 15.7379 16.5712C15.9404 16.3689 16.0416 16.1229 16.0416 15.8333C16.0416 15.5437 15.9404 15.2978 15.7379 15.0954C15.5355 14.8929 15.2896 14.7917 15 14.7917C14.7104 14.7917 14.4644 14.8929 14.2621 15.0954C14.0596 15.2978 13.9583 15.5437 13.9583 15.8333C13.9583 16.1229 14.0596 16.3689 14.2621 16.5712C14.4644 16.7737 14.7104 16.875 15 16.875Z" fill="black"/>
</g>
</svg>
