<svg width="14" height="18" viewBox="0 0 14 18" fill="none" xmlns="http://www.w3.org/2000/svg">
<path d="M7 3.3125C5.87512 3.3125 4.7755 3.64607 3.8402 4.27102C2.90489 4.89597 2.17591 5.78423 1.74544 6.82349C1.31496 7.86274 1.20233 9.00631 1.42179 10.1096C1.64124 11.2128 2.18292 12.2263 2.97833 13.0217C3.77374 13.8171 4.78716 14.3588 5.89043 14.5782C6.99369 14.7977 8.13726 14.685 9.17651 14.2546C10.2158 13.8241 11.104 13.0951 11.729 12.1598C12.3539 11.2245 12.6875 10.1249 12.6875 9C12.6859 7.49207 12.0862 6.04636 11.0199 4.98009C9.95364 3.91382 8.50793 3.31409 7 3.3125ZM7 13.8125C6.04818 13.8125 5.11773 13.5303 4.32632 13.0014C3.53491 12.4726 2.91808 11.721 2.55383 10.8417C2.18959 9.96229 2.09428 8.99466 2.27997 8.06113C2.46566 7.12759 2.92401 6.27009 3.59705 5.59705C4.27009 4.92401 5.1276 4.46566 6.06113 4.27997C6.99466 4.09428 7.9623 4.18958 8.84167 4.55383C9.72104 4.91808 10.4726 5.53491 11.0014 6.32632C11.5303 7.11773 11.8125 8.04818 11.8125 9C11.8111 10.2759 11.3036 11.4991 10.4014 12.4014C9.49915 13.3036 8.27591 13.8111 7 13.8125ZM7.875 11.625C7.875 11.741 7.82891 11.8523 7.74686 11.9344C7.66481 12.0164 7.55353 12.0625 7.4375 12.0625C7.20544 12.0625 6.98288 11.9703 6.81878 11.8062C6.65469 11.6421 6.5625 11.4196 6.5625 11.1875V9C6.44647 9 6.33519 8.95391 6.25314 8.87186C6.1711 8.78981 6.125 8.67853 6.125 8.5625C6.125 8.44647 6.1711 8.33519 6.25314 8.25314C6.33519 8.17109 6.44647 8.125 6.5625 8.125C6.79457 8.125 7.01713 8.21719 7.18122 8.38128C7.34531 8.54538 7.4375 8.76794 7.4375 9V11.1875C7.55353 11.1875 7.66481 11.2336 7.74686 11.3156C7.82891 11.3977 7.875 11.509 7.875 11.625ZM6.125 6.59375C6.125 6.46396 6.16349 6.33708 6.2356 6.22916C6.30771 6.12124 6.4102 6.03712 6.53012 5.98745C6.65003 5.93778 6.78198 5.92479 6.90928 5.95011C7.03658 5.97543 7.15351 6.03793 7.24529 6.12971C7.33707 6.22149 7.39957 6.33842 7.42489 6.46572C7.45021 6.59302 7.43722 6.72497 7.38755 6.84489C7.33788 6.9648 7.25376 7.06729 7.14584 7.1394C7.03793 7.21151 6.91105 7.25 6.78125 7.25C6.6072 7.25 6.44028 7.18086 6.31721 7.05779C6.19414 6.93472 6.125 6.7678 6.125 6.59375Z" fill="#828282"/>
</svg>
