<svg width="20" height="20" viewBox="0 0 20 20" fill="none" xmlns="http://www.w3.org/2000/svg">
<mask id="mask0_348_16061" style="mask-type:alpha" maskUnits="userSpaceOnUse" x="0" y="0" width="20" height="20">
<rect width="20" height="20" transform="matrix(-1 0 0 1 20 0)" fill="#D9D9D9"/>
</mask>
<g mask="url(#mask0_348_16061)">
<path d="M9.99372 17.0834C10.9769 17.0834 11.898 16.8975 12.7568 16.5257C13.6156 16.1539 14.3644 15.6486 15.0033 15.0097C15.6422 14.3708 16.1475 13.622 16.5191 12.7634C16.8909 11.9047 17.0768 10.9837 17.0768 10.0005C17.0768 9.0173 16.8909 8.09626 16.5191 7.23737C16.1475 6.37835 15.6422 5.62939 15.0033 4.9905C14.3644 4.35161 13.6156 3.84626 12.7568 3.47446C11.898 3.10265 10.9769 2.91675 9.99372 2.91675C8.94552 2.91675 7.94976 3.13709 7.00643 3.57779C6.06309 4.01848 5.2533 4.63786 4.57705 5.43591V4.08654C4.57705 3.90946 4.51712 3.76105 4.39726 3.64133C4.2774 3.52147 4.12886 3.46154 3.95164 3.46154C3.77455 3.46154 3.62615 3.52147 3.50643 3.64133C3.38684 3.76105 3.32705 3.90946 3.32705 4.08654V6.93904C3.32705 7.15251 3.39921 7.3314 3.54351 7.47571C3.68796 7.62015 3.86684 7.69237 4.08018 7.69237H6.93268C7.10976 7.69237 7.25823 7.63244 7.37809 7.51258C7.49782 7.39272 7.55768 7.24425 7.55768 7.06716C7.55768 6.88994 7.49782 6.74154 7.37809 6.62196C7.25823 6.50223 7.10976 6.44237 6.93268 6.44237H5.3783C5.95302 5.73404 6.63837 5.17772 7.43434 4.77341C8.23032 4.36897 9.08344 4.16675 9.99372 4.16675C11.6187 4.16675 12.9972 4.73272 14.1291 5.86467C15.2611 6.99661 15.8271 8.37508 15.8271 10.0001C15.8271 11.6251 15.2611 13.0036 14.1291 14.1355C12.9972 15.2674 11.6187 15.8334 9.99372 15.8334C8.64747 15.8334 7.44955 15.4202 6.39997 14.5938C5.35025 13.7674 4.66671 12.7106 4.34934 11.4232C4.29601 11.249 4.20177 11.1171 4.06664 11.0274C3.9315 10.9377 3.77865 10.904 3.60809 10.9263C3.42712 10.9488 3.28719 11.0295 3.1883 11.1684C3.08955 11.3073 3.06261 11.4595 3.10747 11.6251C3.46747 13.2191 4.28636 14.5273 5.56414 15.5497C6.84191 16.5722 8.31844 17.0834 9.99372 17.0834ZM9.36872 9.74696L7.07705 12.0386C6.96164 12.1539 6.90261 12.2989 6.89997 12.4736C6.89719 12.6483 6.95622 12.7961 7.07705 12.9167C7.19775 13.0374 7.34407 13.0978 7.51601 13.0978C7.68809 13.0978 7.83448 13.0374 7.95518 12.9167L10.3927 10.4792C10.4706 10.4012 10.5277 10.3162 10.5641 10.2242C10.6004 10.1323 10.6185 10.0373 10.6185 9.93925V6.45841C10.6185 6.28133 10.5586 6.13286 10.4389 6.013C10.3191 5.89328 10.1705 5.83341 9.9933 5.83341C9.81622 5.83341 9.66782 5.89328 9.54809 6.013C9.42851 6.13286 9.36872 6.28133 9.36872 6.45841V9.74696Z" fill="black"/>
</g>
</svg>
